<svg xmlns="http://www.w3.org/2000/svg" width="496" height="472"><rect width="100%" height="100%" fill="#E4E7E3"/><defs><symbol id="px-coin" viewBox="0 0 16 16"><rect x="5" y="1" width="6" height="1" fill="#2A3230"/><rect x="3" y="2" width="2" height="1" fill="#2A3230"/><rect x="5" y="2" width="6" height="1" fill="#D8B366"/><rect x="11" y="2" width="2" height="1" fill="#2A3230"/><rect x="2" y="3" width="1" height="1" fill="#2A3230"/><rect x="3" y="3" width="2" height="1" fill="#D8B366"/><rect x="5" y="3" width="6" height="1" fill="#F0DFAE"/><rect x="11" y="3" width="2" height="1" fill="#D8B366"/><rect x="13" y="3" width="1" height="1" fill="#2A3230"/><rect x="1" y="4" width="1" height="1" fill="#2A3230"/><rect x="2" y="4" width="2" height="1" fill="#D8B366"/><rect x="4" y="4" width="2" height="1" fill="#F0DFAE"/><rect x="6" y="4" width="4" height="1" fill="#D8B366"/><rect x="10" y="4" width="2" height="1" fill="#F0DFAE"/><rect x="12" y="4" width="2" height="1" fill="#D8B366"/><rect x="14" y="4" width="1" height="1" fill="#2A3230"/><rect x="1" y="5" width="1" height="1" fill="#2A3230"/><rect x="2" y="5" width="1" height="1" fill="#D8B366"/><rect x="3" y="5" width="2" height="1" fill="#F0DFAE"/><rect x="5" y="5" width="2" height="1" fill="#D8B366"/><rect x="7" y="5" width="2" height="1" fill="#B08A4A"/><rect x="9" y="5" width="2" height="1" fill="#D8B366"/><rect x="11" y="5" width="2" height="1" fill="#F0DFAE"/><rect x="13" y="5" width="1" height="1" fill="#D8B366"/><rect x="14" y="5" width="1" height="1" fill="#2A3230"/><rect x="1" y="6" width="1" height="1" fill="#2A3230"/><rect x="2" y="6" width="1" height="1" fill="#D8B366"/><rect x="3" y="6" width="1" height="1" fill="#F0DFAE"/><rect x="4" y="6" width="2" height="1" fill="#D8B366"/><rect x="6" y="6" width="4" height="1" fill="#B08A4A"/><rect x="10" y="6" width="2" height="1" fill="#D8B366"/><rect x="12" y="6" width="1" height="1" fill="#F0DFAE"/><rect x="13" y="6" width="1" height="1" fill="#D8B366"/><rect x="14" y="6" width="1" height="1" fill="#2A3230"/><rect x="1" y="7" width="1" height="1" fill="#2A3230"/><rect x="2" y="7" width="1" height="1" fill="#D8B366"/><rect x="3" y="7" width="1" height="1" fill="#F0DFAE"/><rect x="4" y="7" width="2" height="1" fill="#D8B366"/><rect x="6" y="7" width="4" height="1" fill="#B08A4A"/><rect x="10" y="7" width="2" height="1" fill="#D8B366"/><rect x="12" y="7" width="1" height="1" fill="#F0DFAE"/><rect x="13" y="7" width="1" height="1" fill="#D8B366"/><rect x="14" y="7" width="1" height="1" fill="#2A3230"/><rect x="1" y="8" width="1" height="1" fill="#2A3230"/><rect x="2" y="8" width="1" height="1" fill="#D8B366"/><rect x="3" y="8" width="2" height="1" fill="#F0DFAE"/><rect x="5" y="8" width="2" height="1" fill="#D8B366"/><rect x="7" y="8" width="2" height="1" fill="#B08A4A"/><rect x="9" y="8" width="2" height="1" fill="#D8B366"/><rect x="11" y="8" width="2" height="1" fill="#F0DFAE"/><rect x="13" y="8" width="1" height="1" fill="#D8B366"/><rect x="14" y="8" width="1" height="1" fill="#2A3230"/><rect x="1" y="9" width="1" height="1" fill="#2A3230"/><rect x="2" y="9" width="2" height="1" fill="#D8B366"/><rect x="4" y="9" width="2" height="1" fill="#F0DFAE"/><rect x="6" y="9" width="4" height="1" fill="#D8B366"/><rect x="10" y="9" width="2" height="1" fill="#F0DFAE"/><rect x="12" y="9" width="2" height="1" fill="#D8B366"/><rect x="14" y="9" width="1" height="1" fill="#2A3230"/><rect x="2" y="10" width="1" height="1" fill="#2A3230"/><rect x="3" y="10" width="2" height="1" fill="#D8B366"/><rect x="5" y="10" width="6" height="1" fill="#F0DFAE"/><rect x="11" y="10" width="2" height="1" fill="#D8B366"/><rect x="13" y="10" width="1" height="1" fill="#2A3230"/><rect x="3" y="11" width="2" height="1" fill="#2A3230"/><rect x="5" y="11" width="6" height="1" fill="#D8B366"/><rect x="11" y="11" width="2" height="1" fill="#2A3230"/><rect x="5" y="12" width="6" height="1" fill="#2A3230"/></symbol>
<symbol id="px-sprout" viewBox="0 0 16 16"><rect x="5" y="2" width="2" height="1" fill="#2A3230"/><rect x="11" y="2" width="2" height="1" fill="#2A3230"/><rect x="4" y="3" width="1" height="1" fill="#2A3230"/><rect x="5" y="3" width="2" height="1" fill="#A9C1A5"/><rect x="7" y="3" width="1" height="1" fill="#2A3230"/><rect x="10" y="3" width="1" height="1" fill="#2A3230"/><rect x="11" y="3" width="2" height="1" fill="#A9C1A5"/><rect x="13" y="3" width="1" height="1" fill="#2A3230"/><rect x="3" y="4" width="1" height="1" fill="#2A3230"/><rect x="4" y="4" width="3" height="1" fill="#A9C1A5"/><rect x="7" y="4" width="1" height="1" fill="#2A3230"/><rect x="9" y="4" width="1" height="1" fill="#2A3230"/><rect x="10" y="4" width="3" height="1" fill="#A9C1A5"/><rect x="13" y="4" width="1" height="1" fill="#2A3230"/><rect x="3" y="5" width="1" height="1" fill="#2A3230"/><rect x="4" y="5" width="3" height="1" fill="#A9C1A5"/><rect x="7" y="5" width="2" height="1" fill="#2A3230"/><rect x="9" y="5" width="3" height="1" fill="#A9C1A5"/><rect x="12" y="5" width="1" height="1" fill="#2A3230"/><rect x="4" y="6" width="1" height="1" fill="#2A3230"/><rect x="5" y="6" width="2" height="1" fill="#A9C1A5"/><rect x="7" y="6" width="1" height="1" fill="#2A3230"/><rect x="8" y="6" width="1" height="1" fill="#7E9B80"/><rect x="9" y="6" width="1" height="1" fill="#2A3230"/><rect x="10" y="6" width="2" height="1" fill="#A9C1A5"/><rect x="12" y="6" width="1" height="1" fill="#2A3230"/><rect x="5" y="7" width="2" height="1" fill="#2A3230"/><rect x="8" y="7" width="1" height="1" fill="#7E9B80"/><rect x="10" y="7" width="2" height="1" fill="#2A3230"/><rect x="8" y="8" width="1" height="1" fill="#7E9B80"/><rect x="8" y="9" width="1" height="1" fill="#7E9B80"/><rect x="8" y="10" width="1" height="1" fill="#7E9B80"/><rect x="7" y="11" width="1" height="1" fill="#2A3230"/><rect x="8" y="11" width="1" height="1" fill="#7E9B80"/><rect x="9" y="11" width="1" height="1" fill="#2A3230"/><rect x="3" y="12" width="10" height="1" fill="#2A3230"/><rect x="3" y="13" width="1" height="1" fill="#2A3230"/><rect x="4" y="13" width="8" height="1" fill="#7E9B80"/><rect x="12" y="13" width="1" height="1" fill="#2A3230"/><rect x="3" y="14" width="10" height="1" fill="#2A3230"/></symbol>
<symbol id="px-book" viewBox="0 0 16 16"><rect x="2" y="1" width="12" height="1" fill="#2A3230"/><rect x="1" y="2" width="1" height="1" fill="#2A3230"/><rect x="2" y="2" width="1" height="1" fill="#5A7B8C"/><rect x="3" y="2" width="10" height="1" fill="#8DA9B8"/><rect x="13" y="2" width="1" height="1" fill="#5A7B8C"/><rect x="14" y="2" width="1" height="1" fill="#2A3230"/><rect x="1" y="3" width="1" height="1" fill="#2A3230"/><rect x="2" y="3" width="1" height="1" fill="#8DA9B8"/><rect x="3" y="3" width="10" height="1" fill="#F5F3EC"/><rect x="13" y="3" width="1" height="1" fill="#8DA9B8"/><rect x="14" y="3" width="1" height="1" fill="#2A3230"/><rect x="1" y="4" width="1" height="1" fill="#2A3230"/><rect x="2" y="4" width="1" height="1" fill="#8DA9B8"/><rect x="3" y="4" width="1" height="1" fill="#F5F3EC"/><rect x="4" y="4" width="8" height="1" fill="#2A3230"/><rect x="12" y="4" width="1" height="1" fill="#F5F3EC"/><rect x="13" y="4" width="1" height="1" fill="#8DA9B8"/><rect x="14" y="4" width="1" height="1" fill="#2A3230"/><rect x="1" y="5" width="1" height="1" fill="#2A3230"/><rect x="2" y="5" width="1" height="1" fill="#8DA9B8"/><rect x="3" y="5" width="10" height="1" fill="#F5F3EC"/><rect x="13" y="5" width="1" height="1" fill="#8DA9B8"/><rect x="14" y="5" width="1" height="1" fill="#2A3230"/><rect x="1" y="6" width="1" height="1" fill="#2A3230"/><rect x="2" y="6" width="1" height="1" fill="#8DA9B8"/><rect x="3" y="6" width="1" height="1" fill="#F5F3EC"/><rect x="4" y="6" width="7" height="1" fill="#2A3230"/><rect x="11" y="6" width="2" height="1" fill="#F5F3EC"/><rect x="13" y="6" width="1" height="1" fill="#8DA9B8"/><rect x="14" y="6" width="1" height="1" fill="#2A3230"/><rect x="1" y="7" width="1" height="1" fill="#2A3230"/><rect x="2" y="7" width="1" height="1" fill="#8DA9B8"/><rect x="3" y="7" width="10" height="1" fill="#F5F3EC"/><rect x="13" y="7" width="1" height="1" fill="#8DA9B8"/><rect x="14" y="7" width="1" height="1" fill="#2A3230"/><rect x="1" y="8" width="1" height="1" fill="#2A3230"/><rect x="2" y="8" width="1" height="1" fill="#8DA9B8"/><rect x="3" y="8" width="1" height="1" fill="#F5F3EC"/><rect x="4" y="8" width="6" height="1" fill="#2A3230"/><rect x="10" y="8" width="3" height="1" fill="#F5F3EC"/><rect x="13" y="8" width="1" height="1" fill="#8DA9B8"/><rect x="14" y="8" width="1" height="1" fill="#2A3230"/><rect x="1" y="9" width="1" height="1" fill="#2A3230"/><rect x="2" y="9" width="1" height="1" fill="#8DA9B8"/><rect x="3" y="9" width="10" height="1" fill="#F5F3EC"/><rect x="13" y="9" width="1" height="1" fill="#8DA9B8"/><rect x="14" y="9" width="1" height="1" fill="#2A3230"/><rect x="1" y="10" width="1" height="1" fill="#2A3230"/><rect x="2" y="10" width="1" height="1" fill="#8DA9B8"/><rect x="3" y="10" width="1" height="1" fill="#F5F3EC"/><rect x="4" y="10" width="5" height="1" fill="#2A3230"/><rect x="9" y="10" width="4" height="1" fill="#F5F3EC"/><rect x="13" y="10" width="1" height="1" fill="#8DA9B8"/><rect x="14" y="10" width="1" height="1" fill="#2A3230"/><rect x="1" y="11" width="1" height="1" fill="#2A3230"/><rect x="2" y="11" width="1" height="1" fill="#8DA9B8"/><rect x="3" y="11" width="10" height="1" fill="#F5F3EC"/><rect x="13" y="11" width="1" height="1" fill="#8DA9B8"/><rect x="14" y="11" width="1" height="1" fill="#2A3230"/><rect x="1" y="12" width="1" height="1" fill="#2A3230"/><rect x="2" y="12" width="1" height="1" fill="#5A7B8C"/><rect x="3" y="12" width="10" height="1" fill="#8DA9B8"/><rect x="13" y="12" width="1" height="1" fill="#5A7B8C"/><rect x="14" y="12" width="1" height="1" fill="#2A3230"/><rect x="2" y="13" width="12" height="1" fill="#2A3230"/></symbol>
<symbol id="px-quill" viewBox="0 0 16 16"><rect x="12" y="0" width="2" height="1" fill="#2A3230"/><rect x="11" y="1" width="1" height="1" fill="#2A3230"/><rect x="12" y="1" width="2" height="1" fill="#C7D8E0"/><rect x="14" y="1" width="1" height="1" fill="#2A3230"/><rect x="10" y="2" width="1" height="1" fill="#2A3230"/><rect x="11" y="2" width="2" height="1" fill="#C7D8E0"/><rect x="13" y="2" width="1" height="1" fill="#8DA9B8"/><rect x="14" y="2" width="1" height="1" fill="#2A3230"/><rect x="9" y="3" width="1" height="1" fill="#2A3230"/><rect x="10" y="3" width="2" height="1" fill="#C7D8E0"/><rect x="12" y="3" width="1" height="1" fill="#8DA9B8"/><rect x="13" y="3" width="1" height="1" fill="#2A3230"/><rect x="8" y="4" width="1" height="1" fill="#2A3230"/><rect x="9" y="4" width="2" height="1" fill="#C7D8E0"/><rect x="11" y="4" width="1" height="1" fill="#8DA9B8"/><rect x="12" y="4" width="1" height="1" fill="#2A3230"/><rect x="7" y="5" width="1" height="1" fill="#2A3230"/><rect x="8" y="5" width="2" height="1" fill="#C7D8E0"/><rect x="10" y="5" width="1" height="1" fill="#8DA9B8"/><rect x="11" y="5" width="1" height="1" fill="#2A3230"/><rect x="6" y="6" width="1" height="1" fill="#2A3230"/><rect x="7" y="6" width="2" height="1" fill="#C7D8E0"/><rect x="9" y="6" width="1" height="1" fill="#8DA9B8"/><rect x="10" y="6" width="1" height="1" fill="#2A3230"/><rect x="5" y="7" width="1" height="1" fill="#2A3230"/><rect x="6" y="7" width="2" height="1" fill="#C7D8E0"/><rect x="8" y="7" width="1" height="1" fill="#8DA9B8"/><rect x="9" y="7" width="1" height="1" fill="#2A3230"/><rect x="4" y="8" width="1" height="1" fill="#2A3230"/><rect x="5" y="8" width="2" height="1" fill="#C7D8E0"/><rect x="7" y="8" width="1" height="1" fill="#8DA9B8"/><rect x="8" y="8" width="1" height="1" fill="#2A3230"/><rect x="3" y="9" width="1" height="1" fill="#2A3230"/><rect x="4" y="9" width="2" height="1" fill="#C7D8E0"/><rect x="6" y="9" width="1" height="1" fill="#8DA9B8"/><rect x="7" y="9" width="1" height="1" fill="#2A3230"/><rect x="2" y="10" width="1" height="1" fill="#2A3230"/><rect x="3" y="10" width="2" height="1" fill="#8DA9B8"/><rect x="5" y="10" width="1" height="1" fill="#2A3230"/><rect x="2" y="11" width="1" height="1" fill="#2A3230"/><rect x="3" y="11" width="1" height="1" fill="#8DA9B8"/><rect x="4" y="11" width="1" height="1" fill="#2A3230"/><rect x="1" y="12" width="3" height="1" fill="#2A3230"/><rect x="0" y="13" width="2" height="1" fill="#2A3230"/></symbol>
<symbol id="px-gavel" viewBox="0 0 16 16"><rect x="9" y="1" width="4" height="1" fill="#2A3230"/><rect x="8" y="2" width="1" height="1" fill="#2A3230"/><rect x="9" y="2" width="1" height="1" fill="#B08A4A"/><rect x="10" y="2" width="2" height="1" fill="#D8B366"/><rect x="12" y="2" width="1" height="1" fill="#B08A4A"/><rect x="13" y="2" width="1" height="1" fill="#2A3230"/><rect x="7" y="3" width="1" height="1" fill="#2A3230"/><rect x="8" y="3" width="1" height="1" fill="#B08A4A"/><rect x="9" y="3" width="3" height="1" fill="#D8B366"/><rect x="12" y="3" width="1" height="1" fill="#B08A4A"/><rect x="13" y="3" width="1" height="1" fill="#2A3230"/><rect x="6" y="4" width="1" height="1" fill="#2A3230"/><rect x="7" y="4" width="1" height="1" fill="#B08A4A"/><rect x="8" y="4" width="3" height="1" fill="#D8B366"/><rect x="11" y="4" width="1" height="1" fill="#B08A4A"/><rect x="12" y="4" width="1" height="1" fill="#2A3230"/><rect x="5" y="5" width="1" height="1" fill="#2A3230"/><rect x="6" y="5" width="1" height="1" fill="#B08A4A"/><rect x="7" y="5" width="3" height="1" fill="#D8B366"/><rect x="10" y="5" width="1" height="1" fill="#B08A4A"/><rect x="11" y="5" width="1" height="1" fill="#2A3230"/><rect x="4" y="6" width="2" height="1" fill="#2A3230"/><rect x="6" y="6" width="1" height="1" fill="#B08A4A"/><rect x="7" y="6" width="1" height="1" fill="#D8B366"/><rect x="8" y="6" width="1" height="1" fill="#B08A4A"/><rect x="9" y="6" width="2" height="1" fill="#2A3230"/><rect x="3" y="7" width="1" height="1" fill="#2A3230"/><rect x="4" y="7" width="1" height="1" fill="#B08A4A"/><rect x="5" y="7" width="1" height="1" fill="#2A3230"/><rect x="6" y="7" width="2" height="1" fill="#B08A4A"/><rect x="8" y="7" width="1" height="1" fill="#2A3230"/><rect x="2" y="8" width="1" height="1" fill="#2A3230"/><rect x="3" y="8" width="2" height="1" fill="#B08A4A"/><rect x="5" y="8" width="2" height="1" fill="#2A3230"/><rect x="1" y="9" width="1" height="1" fill="#2A3230"/><rect x="2" y="9" width="2" height="1" fill="#B08A4A"/><rect x="4" y="9" width="1" height="1" fill="#2A3230"/><rect x="1" y="10" width="1" height="1" fill="#2A3230"/><rect x="2" y="10" width="1" height="1" fill="#B08A4A"/><rect x="3" y="10" width="1" height="1" fill="#2A3230"/><rect x="1" y="11" width="2" height="1" fill="#2A3230"/><rect x="2" y="13" width="10" height="1" fill="#2A3230"/><rect x="2" y="14" width="1" height="1" fill="#2A3230"/><rect x="3" y="14" width="8" height="1" fill="#B08A4A"/><rect x="11" y="14" width="1" height="1" fill="#2A3230"/><rect x="2" y="15" width="10" height="1" fill="#2A3230"/></symbol>
<symbol id="px-umbrella" viewBox="0 0 16 16"><rect x="7" y="1" width="2" height="1" fill="#2A3230"/><rect x="5" y="2" width="2" height="1" fill="#2A3230"/><rect x="7" y="2" width="2" height="1" fill="#C6907A"/><rect x="9" y="2" width="2" height="1" fill="#2A3230"/><rect x="3" y="3" width="2" height="1" fill="#2A3230"/><rect x="5" y="3" width="6" height="1" fill="#C6907A"/><rect x="11" y="3" width="2" height="1" fill="#2A3230"/><rect x="2" y="4" width="1" height="1" fill="#2A3230"/><rect x="3" y="4" width="2" height="1" fill="#C6907A"/><rect x="5" y="4" width="1" height="1" fill="#A5705A"/><rect x="6" y="4" width="4" height="1" fill="#C6907A"/><rect x="10" y="4" width="1" height="1" fill="#A5705A"/><rect x="11" y="4" width="2" height="1" fill="#C6907A"/><rect x="13" y="4" width="1" height="1" fill="#2A3230"/><rect x="1" y="5" width="1" height="1" fill="#2A3230"/><rect x="2" y="5" width="1" height="1" fill="#C6907A"/><rect x="3" y="5" width="1" height="1" fill="#A5705A"/><rect x="4" y="5" width="2" height="1" fill="#C6907A"/><rect x="6" y="5" width="1" height="1" fill="#A5705A"/><rect x="7" y="5" width="2" height="1" fill="#C6907A"/><rect x="9" y="5" width="1" height="1" fill="#A5705A"/><rect x="10" y="5" width="2" height="1" fill="#C6907A"/><rect x="12" y="5" width="1" height="1" fill="#A5705A"/><rect x="13" y="5" width="1" height="1" fill="#C6907A"/><rect x="14" y="5" width="1" height="1" fill="#2A3230"/><rect x="0" y="6" width="1" height="1" fill="#2A3230"/><rect x="1" y="6" width="14" height="1" fill="#C6907A"/><rect x="15" y="6" width="1" height="1" fill="#2A3230"/><rect x="0" y="7" width="16" height="1" fill="#2A3230"/><rect x="7" y="8" width="2" height="1" fill="#2A3230"/><rect x="7" y="9" width="2" height="1" fill="#2A3230"/><rect x="7" y="10" width="2" height="1" fill="#2A3230"/><rect x="7" y="11" width="2" height="1" fill="#2A3230"/><rect x="7" y="12" width="2" height="1" fill="#2A3230"/><rect x="6" y="13" width="3" height="1" fill="#2A3230"/><rect x="5" y="14" width="3" height="1" fill="#2A3230"/><rect x="5" y="15" width="2" height="1" fill="#2A3230"/></symbol>
<symbol id="px-train" viewBox="0 0 16 16"><rect x="3" y="1" width="10" height="1" fill="#2A3230"/><rect x="2" y="2" width="1" height="1" fill="#2A3230"/><rect x="3" y="2" width="1" height="1" fill="#5A7B8C"/><rect x="4" y="2" width="8" height="1" fill="#8DA9B8"/><rect x="12" y="2" width="1" height="1" fill="#5A7B8C"/><rect x="13" y="2" width="1" height="1" fill="#2A3230"/><rect x="2" y="3" width="1" height="1" fill="#2A3230"/><rect x="3" y="3" width="1" height="1" fill="#8DA9B8"/><rect x="4" y="3" width="3" height="1" fill="#C7D8E0"/><rect x="7" y="3" width="2" height="1" fill="#2A3230"/><rect x="9" y="3" width="3" height="1" fill="#C7D8E0"/><rect x="12" y="3" width="1" height="1" fill="#8DA9B8"/><rect x="13" y="3" width="1" height="1" fill="#2A3230"/><rect x="2" y="4" width="1" height="1" fill="#2A3230"/><rect x="3" y="4" width="1" height="1" fill="#8DA9B8"/><rect x="4" y="4" width="1" height="1" fill="#C7D8E0"/><rect x="5" y="4" width="2" height="1" fill="#F5F3EC"/><rect x="7" y="4" width="2" height="1" fill="#2A3230"/><rect x="9" y="4" width="2" height="1" fill="#F5F3EC"/><rect x="11" y="4" width="1" height="1" fill="#C7D8E0"/><rect x="12" y="4" width="1" height="1" fill="#8DA9B8"/><rect x="13" y="4" width="1" height="1" fill="#2A3230"/><rect x="2" y="5" width="1" height="1" fill="#2A3230"/><rect x="3" y="5" width="1" height="1" fill="#8DA9B8"/><rect x="4" y="5" width="3" height="1" fill="#C7D8E0"/><rect x="7" y="5" width="2" height="1" fill="#2A3230"/><rect x="9" y="5" width="3" height="1" fill="#C7D8E0"/><rect x="12" y="5" width="1" height="1" fill="#8DA9B8"/><rect x="13" y="5" width="1" height="1" fill="#2A3230"/><rect x="2" y="6" width="1" height="1" fill="#2A3230"/><rect x="3" y="6" width="10" height="1" fill="#8DA9B8"/><rect x="13" y="6" width="1" height="1" fill="#2A3230"/><rect x="2" y="7" width="1" height="1" fill="#2A3230"/><rect x="3" y="7" width="1" height="1" fill="#8DA9B8"/><rect x="4" y="7" width="2" height="1" fill="#F5F3EC"/><rect x="6" y="7" width="4" height="1" fill="#8DA9B8"/><rect x="10" y="7" width="2" height="1" fill="#F5F3EC"/><rect x="12" y="7" width="1" height="1" fill="#8DA9B8"/><rect x="13" y="7" width="1" height="1" fill="#2A3230"/><rect x="2" y="8" width="1" height="1" fill="#2A3230"/><rect x="3" y="8" width="10" height="1" fill="#8DA9B8"/><rect x="13" y="8" width="1" height="1" fill="#2A3230"/><rect x="2" y="9" width="11" height="1" fill="#2A3230"/><rect x="2" y="10" width="1" height="1" fill="#2A3230"/><rect x="3" y="10" width="1" height="1" fill="#4A554E"/><rect x="4" y="10" width="1" height="1" fill="#2A3230"/><rect x="11" y="10" width="1" height="1" fill="#2A3230"/><rect x="12" y="10" width="1" height="1" fill="#4A554E"/><rect x="13" y="10" width="1" height="1" fill="#2A3230"/><rect x="2" y="11" width="3" height="1" fill="#2A3230"/><rect x="11" y="11" width="3" height="1" fill="#2A3230"/><rect x="2" y="12" width="1" height="1" fill="#2A3230"/><rect x="13" y="12" width="1" height="1" fill="#2A3230"/></symbol>
<symbol id="px-signal" viewBox="0 0 16 16"><rect x="4" y="1" width="8" height="1" fill="#2A3230"/><rect x="4" y="2" width="1" height="1" fill="#2A3230"/><rect x="5" y="2" width="6" height="1" fill="#D8DCD5"/><rect x="11" y="2" width="1" height="1" fill="#2A3230"/><rect x="4" y="3" width="1" height="1" fill="#2A3230"/><rect x="5" y="3" width="1" height="1" fill="#D8DCD5"/><rect x="6" y="3" width="1" height="1" fill="#F5F3EC"/><rect x="7" y="3" width="2" height="1" fill="#A5705A"/><rect x="9" y="3" width="1" height="1" fill="#D8DCD5"/><rect x="10" y="3" width="1" height="1" fill="#F5F3EC"/><rect x="11" y="3" width="1" height="1" fill="#2A3230"/><rect x="4" y="4" width="1" height="1" fill="#2A3230"/><rect x="5" y="4" width="1" height="1" fill="#D8DCD5"/><rect x="6" y="4" width="4" height="1" fill="#A5705A"/><rect x="10" y="4" width="1" height="1" fill="#D8DCD5"/><rect x="11" y="4" width="1" height="1" fill="#2A3230"/><rect x="4" y="5" width="1" height="1" fill="#2A3230"/><rect x="5" y="5" width="6" height="1" fill="#D8DCD5"/><rect x="11" y="5" width="1" height="1" fill="#2A3230"/><rect x="4" y="6" width="1" height="1" fill="#2A3230"/><rect x="5" y="6" width="1" height="1" fill="#D8DCD5"/><rect x="6" y="6" width="1" height="1" fill="#F5F3EC"/><rect x="7" y="6" width="3" height="1" fill="#55755B"/><rect x="10" y="6" width="1" height="1" fill="#D8DCD5"/><rect x="11" y="6" width="1" height="1" fill="#2A3230"/><rect x="4" y="7" width="1" height="1" fill="#2A3230"/><rect x="5" y="7" width="1" height="1" fill="#D8DCD5"/><rect x="6" y="7" width="4" height="1" fill="#55755B"/><rect x="10" y="7" width="1" height="1" fill="#D8DCD5"/><rect x="11" y="7" width="1" height="1" fill="#2A3230"/><rect x="4" y="8" width="1" height="1" fill="#2A3230"/><rect x="5" y="8" width="6" height="1" fill="#D8DCD5"/><rect x="11" y="8" width="1" height="1" fill="#2A3230"/><rect x="4" y="9" width="8" height="1" fill="#2A3230"/><rect x="7" y="10" width="2" height="1" fill="#2A3230"/><rect x="7" y="11" width="2" height="1" fill="#2A3230"/><rect x="7" y="12" width="2" height="1" fill="#2A3230"/><rect x="7" y="13" width="2" height="1" fill="#2A3230"/><rect x="5" y="14" width="6" height="1" fill="#2A3230"/><rect x="5" y="15" width="1" height="1" fill="#2A3230"/><rect x="6" y="15" width="4" height="1" fill="#4A554E"/><rect x="10" y="15" width="1" height="1" fill="#2A3230"/></symbol>
<symbol id="px-sun" viewBox="0 0 16 16"><rect x="7" y="1" width="1" height="1" fill="#2A3230"/><rect x="5" y="2" width="1" height="1" fill="#2A3230"/><rect x="7" y="2" width="1" height="1" fill="#2A3230"/><rect x="9" y="2" width="1" height="1" fill="#2A3230"/><rect x="6" y="3" width="3" height="1" fill="#2A3230"/><rect x="3" y="4" width="3" height="1" fill="#2A3230"/><rect x="6" y="4" width="3" height="1" fill="#D8B366"/><rect x="9" y="4" width="3" height="1" fill="#2A3230"/><rect x="4" y="5" width="1" height="1" fill="#2A3230"/><rect x="5" y="5" width="1" height="1" fill="#D8B366"/><rect x="6" y="5" width="3" height="1" fill="#F0DFAE"/><rect x="9" y="5" width="1" height="1" fill="#D8B366"/><rect x="10" y="5" width="1" height="1" fill="#2A3230"/><rect x="2" y="6" width="1" height="1" fill="#2A3230"/><rect x="4" y="6" width="1" height="1" fill="#2A3230"/><rect x="5" y="6" width="1" height="1" fill="#D8B366"/><rect x="6" y="6" width="3" height="1" fill="#F0DFAE"/><rect x="9" y="6" width="1" height="1" fill="#D8B366"/><rect x="10" y="6" width="1" height="1" fill="#2A3230"/><rect x="12" y="6" width="1" height="1" fill="#2A3230"/><rect x="4" y="7" width="1" height="1" fill="#2A3230"/><rect x="5" y="7" width="1" height="1" fill="#D8B366"/><rect x="6" y="7" width="3" height="1" fill="#F0DFAE"/><rect x="9" y="7" width="1" height="1" fill="#D8B366"/><rect x="10" y="7" width="1" height="1" fill="#2A3230"/><rect x="3" y="8" width="3" height="1" fill="#2A3230"/><rect x="6" y="8" width="3" height="1" fill="#D8B366"/><rect x="9" y="8" width="3" height="1" fill="#2A3230"/><rect x="6" y="9" width="3" height="1" fill="#2A3230"/><rect x="5" y="10" width="1" height="1" fill="#2A3230"/><rect x="7" y="10" width="1" height="1" fill="#2A3230"/><rect x="9" y="10" width="1" height="1" fill="#2A3230"/><rect x="7" y="11" width="1" height="1" fill="#2A3230"/></symbol>
<symbol id="px-drop" viewBox="0 0 16 16"><rect x="7" y="1" width="2" height="1" fill="#2A3230"/><rect x="7" y="2" width="2" height="1" fill="#2A3230"/><rect x="6" y="3" width="1" height="1" fill="#2A3230"/><rect x="7" y="3" width="2" height="1" fill="#C7D8E0"/><rect x="9" y="3" width="1" height="1" fill="#2A3230"/><rect x="5" y="4" width="1" height="1" fill="#2A3230"/><rect x="6" y="4" width="4" height="1" fill="#C7D8E0"/><rect x="10" y="4" width="1" height="1" fill="#2A3230"/><rect x="4" y="5" width="1" height="1" fill="#2A3230"/><rect x="5" y="5" width="2" height="1" fill="#C7D8E0"/><rect x="7" y="5" width="2" height="1" fill="#8DA9B8"/><rect x="9" y="5" width="2" height="1" fill="#C7D8E0"/><rect x="11" y="5" width="1" height="1" fill="#2A3230"/><rect x="3" y="6" width="1" height="1" fill="#2A3230"/><rect x="4" y="6" width="2" height="1" fill="#C7D8E0"/><rect x="6" y="6" width="4" height="1" fill="#8DA9B8"/><rect x="10" y="6" width="2" height="1" fill="#C7D8E0"/><rect x="12" y="6" width="1" height="1" fill="#2A3230"/><rect x="3" y="7" width="1" height="1" fill="#2A3230"/><rect x="4" y="7" width="1" height="1" fill="#C7D8E0"/><rect x="5" y="7" width="6" height="1" fill="#8DA9B8"/><rect x="11" y="7" width="1" height="1" fill="#C7D8E0"/><rect x="12" y="7" width="1" height="1" fill="#2A3230"/><rect x="2" y="8" width="1" height="1" fill="#2A3230"/><rect x="3" y="8" width="1" height="1" fill="#C7D8E0"/><rect x="4" y="8" width="8" height="1" fill="#8DA9B8"/><rect x="12" y="8" width="1" height="1" fill="#C7D8E0"/><rect x="13" y="8" width="1" height="1" fill="#2A3230"/><rect x="2" y="9" width="1" height="1" fill="#2A3230"/><rect x="3" y="9" width="1" height="1" fill="#C7D8E0"/><rect x="4" y="9" width="8" height="1" fill="#8DA9B8"/><rect x="12" y="9" width="1" height="1" fill="#C7D8E0"/><rect x="13" y="9" width="1" height="1" fill="#2A3230"/><rect x="3" y="10" width="1" height="1" fill="#2A3230"/><rect x="4" y="10" width="1" height="1" fill="#C7D8E0"/><rect x="5" y="10" width="6" height="1" fill="#8DA9B8"/><rect x="11" y="10" width="1" height="1" fill="#C7D8E0"/><rect x="12" y="10" width="1" height="1" fill="#2A3230"/><rect x="3" y="11" width="2" height="1" fill="#2A3230"/><rect x="5" y="11" width="1" height="1" fill="#C7D8E0"/><rect x="6" y="11" width="4" height="1" fill="#8DA9B8"/><rect x="10" y="11" width="1" height="1" fill="#C7D8E0"/><rect x="11" y="11" width="2" height="1" fill="#2A3230"/><rect x="5" y="12" width="2" height="1" fill="#2A3230"/><rect x="7" y="12" width="2" height="1" fill="#C7D8E0"/><rect x="9" y="12" width="2" height="1" fill="#2A3230"/><rect x="7" y="13" width="2" height="1" fill="#2A3230"/></symbol>
<symbol id="px-star" viewBox="0 0 16 16"><rect x="7" y="1" width="2" height="1" fill="#2A3230"/><rect x="7" y="2" width="2" height="1" fill="#F0DFAE"/><rect x="6" y="3" width="1" height="1" fill="#2A3230"/><rect x="7" y="3" width="2" height="1" fill="#F0DFAE"/><rect x="9" y="3" width="1" height="1" fill="#2A3230"/><rect x="6" y="4" width="1" height="1" fill="#2A3230"/><rect x="7" y="4" width="2" height="1" fill="#F0DFAE"/><rect x="9" y="4" width="1" height="1" fill="#2A3230"/><rect x="1" y="5" width="6" height="1" fill="#2A3230"/><rect x="7" y="5" width="2" height="1" fill="#F0DFAE"/><rect x="9" y="5" width="6" height="1" fill="#2A3230"/><rect x="1" y="6" width="1" height="1" fill="#2A3230"/><rect x="2" y="6" width="12" height="1" fill="#F0DFAE"/><rect x="14" y="6" width="1" height="1" fill="#2A3230"/><rect x="2" y="7" width="1" height="1" fill="#2A3230"/><rect x="3" y="7" width="10" height="1" fill="#F0DFAE"/><rect x="13" y="7" width="1" height="1" fill="#2A3230"/><rect x="3" y="8" width="1" height="1" fill="#2A3230"/><rect x="4" y="8" width="8" height="1" fill="#F0DFAE"/><rect x="12" y="8" width="1" height="1" fill="#2A3230"/><rect x="4" y="9" width="1" height="1" fill="#2A3230"/><rect x="5" y="9" width="6" height="1" fill="#F0DFAE"/><rect x="11" y="9" width="1" height="1" fill="#2A3230"/><rect x="3" y="10" width="1" height="1" fill="#2A3230"/><rect x="4" y="10" width="2" height="1" fill="#F0DFAE"/><rect x="6" y="10" width="2" height="1" fill="#2A3230"/><rect x="8" y="10" width="2" height="1" fill="#F0DFAE"/><rect x="10" y="10" width="2" height="1" fill="#2A3230"/><rect x="2" y="11" width="1" height="1" fill="#2A3230"/><rect x="3" y="11" width="2" height="1" fill="#F0DFAE"/><rect x="5" y="11" width="1" height="1" fill="#2A3230"/><rect x="8" y="11" width="1" height="1" fill="#2A3230"/><rect x="9" y="11" width="2" height="1" fill="#F0DFAE"/><rect x="11" y="11" width="1" height="1" fill="#2A3230"/><rect x="2" y="12" width="3" height="1" fill="#2A3230"/><rect x="9" y="12" width="3" height="1" fill="#2A3230"/></symbol>
<symbol id="px-bird" viewBox="0 0 16 16"><rect x="9" y="2" width="3" height="1" fill="#2A3230"/><rect x="8" y="3" width="1" height="1" fill="#2A3230"/><rect x="9" y="3" width="3" height="1" fill="#F5F3EC"/><rect x="12" y="3" width="1" height="1" fill="#2A3230"/><rect x="7" y="4" width="1" height="1" fill="#2A3230"/><rect x="8" y="4" width="1" height="1" fill="#F5F3EC"/><rect x="9" y="4" width="1" height="1" fill="#2A3230"/><rect x="10" y="4" width="2" height="1" fill="#F5F3EC"/><rect x="12" y="4" width="1" height="1" fill="#2A3230"/><rect x="7" y="5" width="1" height="1" fill="#2A3230"/><rect x="8" y="5" width="4" height="1" fill="#F5F3EC"/><rect x="12" y="5" width="1" height="1" fill="#2A3230"/><rect x="6" y="6" width="4" height="1" fill="#2A3230"/><rect x="10" y="6" width="2" height="1" fill="#F5F3EC"/><rect x="12" y="6" width="2" height="1" fill="#2A3230"/><rect x="5" y="7" width="1" height="1" fill="#2A3230"/><rect x="6" y="7" width="4" height="1" fill="#7E9B80"/><rect x="10" y="7" width="1" height="1" fill="#F5F3EC"/><rect x="11" y="7" width="2" height="1" fill="#2A3230"/><rect x="4" y="8" width="1" height="1" fill="#2A3230"/><rect x="5" y="8" width="6" height="1" fill="#7E9B80"/><rect x="11" y="8" width="1" height="1" fill="#2A3230"/><rect x="4" y="9" width="1" height="1" fill="#2A3230"/><rect x="5" y="9" width="5" height="1" fill="#7E9B80"/><rect x="10" y="9" width="1" height="1" fill="#2A3230"/><rect x="5" y="10" width="1" height="1" fill="#2A3230"/><rect x="6" y="10" width="3" height="1" fill="#7E9B80"/><rect x="9" y="10" width="1" height="1" fill="#2A3230"/><rect x="6" y="11" width="3" height="1" fill="#2A3230"/><rect x="5" y="12" width="1" height="1" fill="#2A3230"/><rect x="8" y="12" width="1" height="1" fill="#2A3230"/><rect x="4" y="13" width="2" height="1" fill="#2A3230"/><rect x="8" y="13" width="2" height="1" fill="#2A3230"/></symbol>
<symbol id="px-pot" viewBox="0 0 16 16"><rect x="5" y="1" width="2" height="1" fill="#2A3230"/><rect x="10" y="1" width="2" height="1" fill="#2A3230"/><rect x="4" y="2" width="1" height="1" fill="#2A3230"/><rect x="5" y="2" width="2" height="1" fill="#A9C1A5"/><rect x="7" y="2" width="1" height="1" fill="#2A3230"/><rect x="9" y="2" width="1" height="1" fill="#2A3230"/><rect x="10" y="2" width="2" height="1" fill="#A9C1A5"/><rect x="12" y="2" width="1" height="1" fill="#2A3230"/><rect x="3" y="3" width="1" height="1" fill="#2A3230"/><rect x="4" y="3" width="3" height="1" fill="#A9C1A5"/><rect x="7" y="3" width="2" height="1" fill="#2A3230"/><rect x="9" y="3" width="3" height="1" fill="#A9C1A5"/><rect x="12" y="3" width="1" height="1" fill="#2A3230"/><rect x="3" y="4" width="1" height="1" fill="#2A3230"/><rect x="4" y="4" width="3" height="1" fill="#A9C1A5"/><rect x="7" y="4" width="2" height="1" fill="#7E9B80"/><rect x="9" y="4" width="3" height="1" fill="#A9C1A5"/><rect x="12" y="4" width="1" height="1" fill="#2A3230"/><rect x="4" y="5" width="2" height="1" fill="#2A3230"/><rect x="6" y="5" width="1" height="1" fill="#A9C1A5"/><rect x="7" y="5" width="2" height="1" fill="#7E9B80"/><rect x="9" y="5" width="1" height="1" fill="#A9C1A5"/><rect x="10" y="5" width="2" height="1" fill="#2A3230"/><rect x="7" y="6" width="2" height="1" fill="#7E9B80"/><rect x="7" y="7" width="2" height="1" fill="#7E9B80"/><rect x="4" y="8" width="8" height="1" fill="#2A3230"/><rect x="4" y="9" width="1" height="1" fill="#2A3230"/><rect x="5" y="9" width="1" height="1" fill="#A5705A"/><rect x="6" y="9" width="4" height="1" fill="#C6907A"/><rect x="10" y="9" width="1" height="1" fill="#A5705A"/><rect x="11" y="9" width="1" height="1" fill="#2A3230"/><rect x="4" y="10" width="1" height="1" fill="#2A3230"/><rect x="5" y="10" width="1" height="1" fill="#A5705A"/><rect x="6" y="10" width="4" height="1" fill="#C6907A"/><rect x="10" y="10" width="1" height="1" fill="#A5705A"/><rect x="11" y="10" width="1" height="1" fill="#2A3230"/><rect x="5" y="11" width="1" height="1" fill="#2A3230"/><rect x="6" y="11" width="2" height="1" fill="#A5705A"/><rect x="8" y="11" width="2" height="1" fill="#C6907A"/><rect x="10" y="11" width="1" height="1" fill="#A5705A"/><rect x="11" y="11" width="1" height="1" fill="#2A3230"/><rect x="5" y="12" width="1" height="1" fill="#2A3230"/><rect x="6" y="12" width="5" height="1" fill="#A5705A"/><rect x="11" y="12" width="1" height="1" fill="#2A3230"/><rect x="6" y="13" width="5" height="1" fill="#2A3230"/></symbol>
<symbol id="px-droplet" viewBox="0 0 16 16"><rect x="7" y="1" width="2" height="1" fill="#2A3230"/><rect x="7" y="2" width="2" height="1" fill="#2A3230"/><rect x="6" y="3" width="1" height="1" fill="#2A3230"/><rect x="7" y="3" width="2" height="1" fill="#C7D8E0"/><rect x="9" y="3" width="1" height="1" fill="#2A3230"/><rect x="6" y="4" width="1" height="1" fill="#2A3230"/><rect x="7" y="4" width="2" height="1" fill="#C7D8E0"/><rect x="9" y="4" width="1" height="1" fill="#2A3230"/><rect x="5" y="5" width="1" height="1" fill="#2A3230"/><rect x="6" y="5" width="1" height="1" fill="#C7D8E0"/><rect x="7" y="5" width="2" height="1" fill="#8DA9B8"/><rect x="9" y="5" width="1" height="1" fill="#C7D8E0"/><rect x="10" y="5" width="1" height="1" fill="#2A3230"/><rect x="5" y="6" width="1" height="1" fill="#2A3230"/><rect x="6" y="6" width="1" height="1" fill="#C7D8E0"/><rect x="7" y="6" width="2" height="1" fill="#8DA9B8"/><rect x="9" y="6" width="1" height="1" fill="#C7D8E0"/><rect x="10" y="6" width="1" height="1" fill="#2A3230"/><rect x="4" y="7" width="1" height="1" fill="#2A3230"/><rect x="5" y="7" width="1" height="1" fill="#C7D8E0"/><rect x="6" y="7" width="4" height="1" fill="#8DA9B8"/><rect x="10" y="7" width="1" height="1" fill="#C7D8E0"/><rect x="11" y="7" width="1" height="1" fill="#2A3230"/><rect x="4" y="8" width="1" height="1" fill="#2A3230"/><rect x="5" y="8" width="1" height="1" fill="#C7D8E0"/><rect x="6" y="8" width="4" height="1" fill="#8DA9B8"/><rect x="10" y="8" width="1" height="1" fill="#C7D8E0"/><rect x="11" y="8" width="1" height="1" fill="#2A3230"/><rect x="4" y="9" width="1" height="1" fill="#2A3230"/><rect x="5" y="9" width="1" height="1" fill="#C7D8E0"/><rect x="6" y="9" width="4" height="1" fill="#8DA9B8"/><rect x="10" y="9" width="1" height="1" fill="#C7D8E0"/><rect x="11" y="9" width="1" height="1" fill="#2A3230"/><rect x="5" y="10" width="1" height="1" fill="#2A3230"/><rect x="6" y="10" width="1" height="1" fill="#C7D8E0"/><rect x="7" y="10" width="2" height="1" fill="#8DA9B8"/><rect x="9" y="10" width="1" height="1" fill="#C7D8E0"/><rect x="10" y="10" width="1" height="1" fill="#2A3230"/><rect x="6" y="11" width="4" height="1" fill="#2A3230"/></symbol>
<symbol id="px-clock" viewBox="0 0 16 16"><rect x="5" y="1" width="6" height="1" fill="#2A3230"/><rect x="3" y="2" width="2" height="1" fill="#2A3230"/><rect x="5" y="2" width="6" height="1" fill="#D8DCD5"/><rect x="11" y="2" width="2" height="1" fill="#2A3230"/><rect x="2" y="3" width="1" height="1" fill="#2A3230"/><rect x="3" y="3" width="10" height="1" fill="#D8DCD5"/><rect x="13" y="3" width="1" height="1" fill="#2A3230"/><rect x="1" y="4" width="1" height="1" fill="#2A3230"/><rect x="2" y="4" width="12" height="1" fill="#D8DCD5"/><rect x="14" y="4" width="1" height="1" fill="#2A3230"/><rect x="1" y="5" width="1" height="1" fill="#2A3230"/><rect x="2" y="5" width="12" height="1" fill="#D8DCD5"/><rect x="14" y="5" width="1" height="1" fill="#2A3230"/><rect x="1" y="6" width="1" height="1" fill="#2A3230"/><rect x="2" y="6" width="6" height="1" fill="#D8DCD5"/><rect x="8" y="6" width="1" height="1" fill="#2A3230"/><rect x="9" y="6" width="6" height="1" fill="#D8DCD5"/><rect x="15" y="6" width="1" height="1" fill="#2A3230"/><rect x="1" y="7" width="1" height="1" fill="#2A3230"/><rect x="2" y="7" width="6" height="1" fill="#D8DCD5"/><rect x="8" y="7" width="1" height="1" fill="#2A3230"/><rect x="9" y="7" width="6" height="1" fill="#D8DCD5"/><rect x="1" y="8" width="1" height="1" fill="#2A3230"/><rect x="2" y="8" width="6" height="1" fill="#D8DCD5"/><rect x="8" y="8" width="4" height="1" fill="#2A3230"/><rect x="12" y="8" width="2" height="1" fill="#D8DCD5"/><rect x="1" y="9" width="1" height="1" fill="#2A3230"/><rect x="2" y="9" width="12" height="1" fill="#D8DCD5"/><rect x="14" y="9" width="1" height="1" fill="#2A3230"/><rect x="1" y="10" width="1" height="1" fill="#2A3230"/><rect x="2" y="10" width="12" height="1" fill="#D8DCD5"/><rect x="14" y="10" width="1" height="1" fill="#2A3230"/><rect x="2" y="11" width="1" height="1" fill="#2A3230"/><rect x="3" y="11" width="10" height="1" fill="#D8DCD5"/><rect x="13" y="11" width="1" height="1" fill="#2A3230"/><rect x="3" y="12" width="2" height="1" fill="#2A3230"/><rect x="5" y="12" width="6" height="1" fill="#D8DCD5"/><rect x="11" y="12" width="2" height="1" fill="#2A3230"/><rect x="5" y="13" width="6" height="1" fill="#2A3230"/></symbol>
<symbol id="px-arrow" viewBox="0 0 16 16"><rect x="8" y="5" width="2" height="1" fill="#2A3230"/><rect x="2" y="6" width="7" height="1" fill="#2A3230"/><rect x="9" y="6" width="1" height="1" fill="#D8B366"/><rect x="10" y="6" width="1" height="1" fill="#2A3230"/><rect x="2" y="7" width="1" height="1" fill="#2A3230"/><rect x="3" y="7" width="8" height="1" fill="#D8B366"/><rect x="11" y="7" width="1" height="1" fill="#2A3230"/><rect x="2" y="8" width="1" height="1" fill="#2A3230"/><rect x="3" y="8" width="9" height="1" fill="#D8B366"/><rect x="12" y="8" width="1" height="1" fill="#2A3230"/><rect x="2" y="9" width="1" height="1" fill="#2A3230"/><rect x="3" y="9" width="8" height="1" fill="#D8B366"/><rect x="11" y="9" width="1" height="1" fill="#2A3230"/><rect x="2" y="10" width="7" height="1" fill="#2A3230"/><rect x="9" y="10" width="1" height="1" fill="#D8B366"/><rect x="10" y="10" width="1" height="1" fill="#2A3230"/><rect x="8" y="11" width="2" height="1" fill="#2A3230"/></symbol>
<symbol id="px-cloud" viewBox="0 0 16 16"><rect x="5" y="2" width="4" height="1" fill="#2A3230"/><rect x="3" y="3" width="2" height="1" fill="#2A3230"/><rect x="5" y="3" width="4" height="1" fill="#C7D8E0"/><rect x="9" y="3" width="2" height="1" fill="#2A3230"/><rect x="2" y="4" width="1" height="1" fill="#2A3230"/><rect x="3" y="4" width="8" height="1" fill="#C7D8E0"/><rect x="11" y="4" width="1" height="1" fill="#2A3230"/><rect x="1" y="5" width="1" height="1" fill="#2A3230"/><rect x="2" y="5" width="10" height="1" fill="#C7D8E0"/><rect x="12" y="5" width="1" height="1" fill="#2A3230"/><rect x="0" y="6" width="1" height="1" fill="#2A3230"/><rect x="1" y="6" width="12" height="1" fill="#C7D8E0"/><rect x="13" y="6" width="1" height="1" fill="#2A3230"/><rect x="0" y="7" width="14" height="1" fill="#2A3230"/><rect x="2" y="8" width="1" height="1" fill="#8DA9B8"/><rect x="6" y="8" width="1" height="1" fill="#8DA9B8"/><rect x="10" y="8" width="1" height="1" fill="#8DA9B8"/><rect x="3" y="9" width="1" height="1" fill="#8DA9B8"/><rect x="7" y="9" width="1" height="1" fill="#8DA9B8"/><rect x="11" y="9" width="1" height="1" fill="#8DA9B8"/><rect x="2" y="10" width="1" height="1" fill="#8DA9B8"/><rect x="6" y="10" width="1" height="1" fill="#8DA9B8"/><rect x="10" y="10" width="1" height="1" fill="#8DA9B8"/></symbol>
<symbol id="px-tram" viewBox="0 0 32 16"><rect x="13" y="1" width="2" height="1" fill="#2A3230"/><rect x="4" y="2" width="22" height="1" fill="#2A3230"/><rect x="3" y="3" width="1" height="1" fill="#2A3230"/><rect x="4" y="3" width="22" height="1" fill="#5A7B8C"/><rect x="26" y="3" width="1" height="1" fill="#2A3230"/><rect x="2" y="4" width="1" height="1" fill="#2A3230"/><rect x="3" y="4" width="2" height="1" fill="#5A7B8C"/><rect x="5" y="4" width="20" height="1" fill="#8DA9B8"/><rect x="25" y="4" width="2" height="1" fill="#5A7B8C"/><rect x="27" y="4" width="1" height="1" fill="#2A3230"/><rect x="2" y="5" width="1" height="1" fill="#2A3230"/><rect x="3" y="5" width="1" height="1" fill="#5A7B8C"/><rect x="4" y="5" width="1" height="1" fill="#8DA9B8"/><rect x="5" y="5" width="4" height="1" fill="#C7D8E0"/><rect x="9" y="5" width="1" height="1" fill="#8DA9B8"/><rect x="10" y="5" width="4" height="1" fill="#C7D8E0"/><rect x="14" y="5" width="1" height="1" fill="#8DA9B8"/><rect x="15" y="5" width="4" height="1" fill="#C7D8E0"/><rect x="19" y="5" width="1" height="1" fill="#8DA9B8"/><rect x="20" y="5" width="4" height="1" fill="#C7D8E0"/><rect x="24" y="5" width="1" height="1" fill="#8DA9B8"/><rect x="25" y="5" width="1" height="1" fill="#C7D8E0"/><rect x="26" y="5" width="1" height="1" fill="#5A7B8C"/><rect x="27" y="5" width="1" height="1" fill="#2A3230"/><rect x="2" y="6" width="1" height="1" fill="#2A3230"/><rect x="3" y="6" width="1" height="1" fill="#5A7B8C"/><rect x="4" y="6" width="1" height="1" fill="#8DA9B8"/><rect x="5" y="6" width="2" height="1" fill="#C7D8E0"/><rect x="7" y="6" width="1" height="1" fill="#F0DFAE"/><rect x="8" y="6" width="1" height="1" fill="#C7D8E0"/><rect x="9" y="6" width="1" height="1" fill="#8DA9B8"/><rect x="10" y="6" width="4" height="1" fill="#C7D8E0"/><rect x="14" y="6" width="1" height="1" fill="#8DA9B8"/><rect x="15" y="6" width="2" height="1" fill="#C7D8E0"/><rect x="17" y="6" width="1" height="1" fill="#F0DFAE"/><rect x="18" y="6" width="1" height="1" fill="#C7D8E0"/><rect x="19" y="6" width="1" height="1" fill="#8DA9B8"/><rect x="20" y="6" width="4" height="1" fill="#C7D8E0"/><rect x="24" y="6" width="1" height="1" fill="#8DA9B8"/><rect x="25" y="6" width="1" height="1" fill="#C7D8E0"/><rect x="26" y="6" width="1" height="1" fill="#5A7B8C"/><rect x="27" y="6" width="1" height="1" fill="#2A3230"/><rect x="2" y="7" width="1" height="1" fill="#2A3230"/><rect x="3" y="7" width="1" height="1" fill="#5A7B8C"/><rect x="4" y="7" width="22" height="1" fill="#8DA9B8"/><rect x="26" y="7" width="1" height="1" fill="#5A7B8C"/><rect x="27" y="7" width="1" height="1" fill="#2A3230"/><rect x="2" y="8" width="1" height="1" fill="#2A3230"/><rect x="3" y="8" width="1" height="1" fill="#5A7B8C"/><rect x="4" y="8" width="22" height="1" fill="#F0DFAE"/><rect x="26" y="8" width="1" height="1" fill="#5A7B8C"/><rect x="27" y="8" width="1" height="1" fill="#2A3230"/><rect x="2" y="9" width="1" height="1" fill="#2A3230"/><rect x="3" y="9" width="1" height="1" fill="#5A7B8C"/><rect x="4" y="9" width="22" height="1" fill="#8DA9B8"/><rect x="26" y="9" width="1" height="1" fill="#5A7B8C"/><rect x="27" y="9" width="1" height="1" fill="#2A3230"/><rect x="2" y="10" width="1" height="1" fill="#2A3230"/><rect x="3" y="10" width="1" height="1" fill="#5A7B8C"/><rect x="4" y="10" width="2" height="1" fill="#8DA9B8"/><rect x="6" y="10" width="2" height="1" fill="#F5F3EC"/><rect x="8" y="10" width="12" height="1" fill="#8DA9B8"/><rect x="20" y="10" width="2" height="1" fill="#F5F3EC"/><rect x="22" y="10" width="4" height="1" fill="#8DA9B8"/><rect x="26" y="10" width="1" height="1" fill="#5A7B8C"/><rect x="27" y="10" width="1" height="1" fill="#2A3230"/><rect x="2" y="11" width="1" height="1" fill="#2A3230"/><rect x="3" y="11" width="24" height="1" fill="#5A7B8C"/><rect x="27" y="11" width="1" height="1" fill="#2A3230"/><rect x="3" y="12" width="24" height="1" fill="#2A3230"/><rect x="4" y="13" width="1" height="1" fill="#2A3230"/><rect x="5" y="13" width="1" height="1" fill="#4A554E"/><rect x="6" y="13" width="1" height="1" fill="#2A3230"/><rect x="17" y="13" width="1" height="1" fill="#2A3230"/><rect x="18" y="13" width="1" height="1" fill="#4A554E"/><rect x="19" y="13" width="1" height="1" fill="#2A3230"/><rect x="4" y="14" width="3" height="1" fill="#2A3230"/><rect x="17" y="14" width="3" height="1" fill="#2A3230"/></symbol></defs><g shape-rendering="crispEdges"><use href="#px-coin" x="8" y="8" width="80" height="80"/><text x="8" y="100" font-family="monospace" font-size="11" fill="#2A3230">coin</text><use href="#px-sprout" x="104" y="8" width="80" height="80"/><text x="104" y="100" font-family="monospace" font-size="11" fill="#2A3230">sprout</text><use href="#px-book" x="200" y="8" width="80" height="80"/><text x="200" y="100" font-family="monospace" font-size="11" fill="#2A3230">book</text><use href="#px-quill" x="296" y="8" width="80" height="80"/><text x="296" y="100" font-family="monospace" font-size="11" fill="#2A3230">quill</text><use href="#px-gavel" x="392" y="8" width="80" height="80"/><text x="392" y="100" font-family="monospace" font-size="11" fill="#2A3230">gavel</text><use href="#px-umbrella" x="8" y="122" width="80" height="80"/><text x="8" y="214" font-family="monospace" font-size="11" fill="#2A3230">umbrella</text><use href="#px-train" x="104" y="122" width="80" height="80"/><text x="104" y="214" font-family="monospace" font-size="11" fill="#2A3230">train</text><use href="#px-signal" x="200" y="122" width="80" height="80"/><text x="200" y="214" font-family="monospace" font-size="11" fill="#2A3230">signal</text><use href="#px-sun" x="296" y="122" width="80" height="80"/><text x="296" y="214" font-family="monospace" font-size="11" fill="#2A3230">sun</text><use href="#px-drop" x="392" y="122" width="80" height="80"/><text x="392" y="214" font-family="monospace" font-size="11" fill="#2A3230">drop</text><use href="#px-star" x="8" y="236" width="80" height="80"/><text x="8" y="328" font-family="monospace" font-size="11" fill="#2A3230">star</text><use href="#px-bird" x="104" y="236" width="80" height="80"/><text x="104" y="328" font-family="monospace" font-size="11" fill="#2A3230">bird</text><use href="#px-pot" x="200" y="236" width="80" height="80"/><text x="200" y="328" font-family="monospace" font-size="11" fill="#2A3230">pot</text><use href="#px-droplet" x="296" y="236" width="80" height="80"/><text x="296" y="328" font-family="monospace" font-size="11" fill="#2A3230">droplet</text><use href="#px-clock" x="392" y="236" width="80" height="80"/><text x="392" y="328" font-family="monospace" font-size="11" fill="#2A3230">clock</text><use href="#px-arrow" x="8" y="350" width="80" height="80"/><text x="8" y="442" font-family="monospace" font-size="11" fill="#2A3230">arrow</text><use href="#px-cloud" x="104" y="350" width="80" height="80"/><text x="104" y="442" font-family="monospace" font-size="11" fill="#2A3230">cloud</text></g></svg>